<?xml version="1.0" encoding="UTF-8"?>
<svg id="Layer_2" data-name="Layer 2" xmlns="http://www.w3.org/2000/svg" xmlns:xlink="http://www.w3.org/1999/xlink" viewBox="0 0 468.59 210.45">
  <defs>
    <style>
      .cls-1 {
        fill: url(#linear-gradient-2);
      }

      .cls-2 {
        fill: url(#linear-gradient-5);
      }

      .cls-3 {
        fill: url(#linear-gradient-3);
      }

      .cls-4 {
        fill: url(#linear-gradient);
      }

      .cls-5 {
        fill: #231f20;
      }

      .cls-6 {
        fill: url(#linear-gradient-4);
      }
    </style>
    <linearGradient id="linear-gradient" x1="33.67" y1="23.52" x2="149.13" y2="116.25" gradientUnits="userSpaceOnUse">
      <stop offset=".06" stop-color="#382f8a"/>
      <stop offset="1" stop-color="#c04097"/>
      <stop offset="1" stop-color="#faa21b"/>
    </linearGradient>
    <linearGradient id="linear-gradient-2" x1="22.79" y1="47.93" x2="141.5" y2="143.27" xlink:href="#linear-gradient"/>
    <linearGradient id="linear-gradient-3" x1="170.48" y1="31.88" x2="226.48" y2="31.88" gradientTransform="translate(1.48 -15.09) rotate(4.54)" xlink:href="#linear-gradient"/>
    <linearGradient id="linear-gradient-4" x1="129.16" y1="10.06" x2="150" y2="10.06" xlink:href="#linear-gradient"/>
    <linearGradient id="linear-gradient-5" x1=".43" y1="196.93" x2="28.43" y2="196.93" xlink:href="#linear-gradient"/>
  </defs>
  <g id="Layer_1-2" data-name="Layer 1">
    <g>
      <g>
        <path class="cls-4" d="m.84,66.09l20.02-27.04c.38-.52.97-.82,1.6-.82h132.82c.62,0,1.21.3,1.59.81l20.32,27.04c1.02,1.36.08,3.33-1.59,3.33h-61.38c-.9,0-1.69.62-1.94,1.51l-21.42,78.4c-.56,2.07-3.45,1.99-3.9-.11l-16.81-78.18c-.2-.94-1.02-1.62-1.96-1.62H2.44c-1.67,0-2.61-1.96-1.6-3.32Z"/>
        <path class="cls-1" d="m177.74,78.09l-61.29,96.35c-1.35,2.11-4.57.35-3.52-1.92l37.54-81.04c.61-1.34-.36-2.86-1.83-2.86h-9.09c-.8,0-1.52.47-1.84,1.2l-46.51,105.63s-.04.09-.06.14c-.37.79-1.18,1.34-2.11,1.34-.86,0-1.6-.46-2.01-1.14l-.22-.48s0-.02-.01-.03l-47.76-105.48c-.33-.72-1.05-1.18-1.84-1.18h-7.78c-1.46,0-2.43,1.51-1.83,2.84l37,81.71c1.04,2.28-2.2,4.02-3.53,1.89L.31,78.08c-.83-1.34.13-3.08,1.71-3.08h57.77c.9,0,1.68.59,1.93,1.45l25.49,87.23c.55,1.9,3.24,1.94,3.84.05l28.01-87.33c.27-.84,1.04-1.4,1.92-1.4h55.07c1.58,0,2.54,1.75,1.69,3.09Z"/>
        <path class="cls-3" d="m198.78,5.44s1.29,27.18,25.98,28.75c0,0-27.22-.98-29.16,25.23,0,0,.01-27.13-26.7-29.24,0,0,25.16,3.14,29.88-24.74Z"/>
        <path class="cls-6" d="m139.52,0s1.28,10.05,10.48,9.9c0,0-10.13.44-10.07,10.22,0,0-.79-10.06-10.77-10.06,0,0,9.42.42,10.36-10.06Z"/>
        <path class="cls-2" d="m14.34,183.42s1.72,13.5,14.09,13.3c0,0-13.61.59-13.53,13.73,0,0-1.07-13.52-14.47-13.52,0,0,12.66.57,13.91-13.52Z"/>
      </g>
      <g>
        <g>
          <path class="cls-5" d="m257.77,49.56h-9.18v-4.99h23.67v4.99h-9.1v51.66h-5.39v-51.66Z"/>
          <path class="cls-5" d="m281.87,74.5v26.71h-5.39v-56.64h9.38c8.48,0,12.46,3.72,12.46,12.89v2.69c0,7.45-2.5,10.83-5.77,11.95,3.66,1.28,5.28,4.06,5.28,11.62,0,4.86-.08,13.88.56,17.49h-5.27c-.71-3.56-.59-13.13-.59-17.06,0-7.44-1.07-9.65-6.81-9.65h-3.86Zm0-4.62h4.1c5.56,0,6.9-3.44,6.9-9.46v-2.66c0-5.36-1.53-8.56-7.37-8.56h-3.63v20.68Z"/>
          <path class="cls-5" d="m323.6,73.42h-12.76v22.84h14.44l-.75,4.96h-19.08v-56.64h18.89v4.99h-13.5v18.91h12.76v4.95Z"/>
          <path class="cls-5" d="m337.02,82.45l-2.88,18.77h-5.45l9.35-56.64h7.7l9.74,56.64h-5.65l-3.08-18.77h-9.74Zm9.02-4.96c-2.14-13.14-3.6-22.9-4.12-28.01h-.23c-.2,4.31-2.3,17.2-3.92,28.01h8.27Z"/>
          <path class="cls-5" d="m364.96,85.44v3.23c0,5.6,1.98,8.57,6.1,8.57s5.98-2.87,5.98-9.67-1.49-9.49-7.43-14.11c-6.05-4.72-9.08-7.53-9.08-15.87,0-7.11,2.12-13.84,10.7-13.78,7.96.05,10.33,5.23,10.33,12.67v2.54h-5.36v-2.39c0-4.88-.98-8.07-5.08-8.07s-5.19,3.63-5.19,8.23c0,5.56,1.12,7.57,6.36,11.57,7.72,5.87,10.18,9.1,10.18,18.49,0,7.95-2.15,15.11-11.47,15.11-8.83,0-11.43-5.83-11.43-13.29v-3.23h5.39Z"/>
          <path class="cls-5" d="m393.77,44.57v44.24c0,4.81,1.71,8.19,6.16,8.19s6.1-3.09,6.1-8.13v-44.3h5.44v44.08c0,8.71-3.91,13.3-11.66,13.3s-11.44-4.29-11.44-13.14v-44.24h5.39Z"/>
          <path class="cls-5" d="m425.18,74.5v26.71h-5.39v-56.64h9.38c8.48,0,12.46,3.72,12.46,12.89v2.69c0,7.45-2.5,10.83-5.77,11.95,3.66,1.28,5.28,4.06,5.28,11.62,0,4.86-.08,13.88.56,17.49h-5.27c-.71-3.56-.59-13.13-.59-17.06,0-7.44-1.07-9.65-6.81-9.65h-3.86Zm0-4.62h4.1c5.56,0,6.9-3.44,6.9-9.46v-2.66c0-5.36-1.53-8.56-7.37-8.56h-3.63v20.68Z"/>
          <path class="cls-5" d="m466.91,73.42h-12.76v22.84h14.44l-.75,4.96h-19.08v-56.64h18.89v4.99h-13.5v18.91h12.76v4.95Z"/>
        </g>
        <g>
          <path class="cls-5" d="m286.31,158.44c0-12.51.23-25.54.43-32.59h-.1c-1.7,11.16-7.15,41.24-10.9,61.29h-6.33c-2.85-17.21-8.5-49.43-10.13-61.33h-.2c.2,7.77.57,22.99.57,34.47v26.85h-5.99v-67.07h9.44c3.93,20.48,8.73,46.35,9.64,54.69h.1c1.04-8.09,6.52-35.44,10.42-54.69h9.29v67.07h-6.23v-28.7Z"/>
          <path class="cls-5" d="m332.97,164.92l-3.41,22.22h-6.45l11.07-67.07h9.12l11.53,67.07h-6.69l-3.64-22.22h-11.53Zm10.68-5.87c-2.54-15.56-4.27-27.12-4.88-33.17h-.27c-.24,5.1-2.73,20.36-4.65,33.17h9.79Z"/>
          <path class="cls-5" d="m392.07,155.51v31.63h-6.38v-67.07h11.1c10.05,0,14.75,4.41,14.75,15.26v3.19c0,8.83-2.96,12.82-6.83,14.15,4.33,1.52,6.25,4.81,6.25,13.76,0,5.75-.1,16.44.67,20.71h-6.24c-.84-4.21-.7-15.54-.7-20.2,0-8.81-1.26-11.42-8.06-11.42h-4.57Zm0-5.48h4.85c6.58,0,8.17-4.07,8.17-11.21v-3.15c0-6.35-1.81-10.14-8.73-10.14h-4.3v24.49Z"/>
          <path class="cls-5" d="m450.69,125.97h-10.87v-5.9h28.03v5.9h-10.78v61.17h-6.38v-61.17Z"/>
        </g>
      </g>
    </g>
  </g>
</svg>